G04 MADE WITH FRITZING*
G04 WWW.FRITZING.ORG*
G04 DOUBLE SIDED*
G04 HOLES PLATED*
G04 CONTOUR ON CENTER OF CONTOUR VECTOR*
%ASAXBY*%
%FSLAX23Y23*%
%MOIN*%
%OFA0B0*%
%SFA1.0B1.0*%
%ADD10C,0.049370*%
%ADD11C,0.095437*%
%ADD12C,0.085000*%
%ADD13C,0.080000*%
%ADD14C,0.076889*%
%ADD15C,0.077278*%
%LNMASK1*%
G90*
G70*
G54D10*
X2501Y1436D03*
X801Y736D03*
X1001Y536D03*
X1601Y536D03*
X1301Y986D03*
G54D11*
X2101Y1336D03*
X1708Y1336D03*
G54D10*
X951Y2686D03*
X1851Y2686D03*
X2001Y936D03*
X2001Y836D03*
X1651Y1786D03*
G54D12*
X601Y1886D03*
X345Y1886D03*
X601Y2063D03*
X345Y2063D03*
X1301Y2586D03*
X1557Y2586D03*
X1301Y2409D03*
X1557Y2409D03*
X2501Y1886D03*
X2245Y1886D03*
X2501Y2063D03*
X2245Y2063D03*
X2501Y786D03*
X2245Y786D03*
X2501Y963D03*
X2245Y963D03*
X1301Y386D03*
X1557Y386D03*
X1301Y209D03*
X1557Y209D03*
X1351Y1286D03*
X1351Y1542D03*
X1528Y1286D03*
X1528Y1542D03*
X345Y963D03*
X601Y963D03*
X345Y786D03*
X601Y786D03*
G54D13*
X1226Y751D03*
X1882Y926D03*
X1577Y2061D03*
X921Y1887D03*
G54D14*
X1401Y1136D03*
X1301Y1136D03*
X1201Y1136D03*
X1101Y1136D03*
X1001Y1136D03*
X901Y1136D03*
X801Y1136D03*
X701Y1136D03*
X601Y1136D03*
X501Y1136D03*
X401Y1136D03*
X301Y1136D03*
X201Y1136D03*
X101Y1136D03*
X201Y1250D03*
X501Y1250D03*
X401Y1250D03*
X1401Y1736D03*
X1301Y1736D03*
X1201Y1736D03*
X1101Y1736D03*
X1001Y1736D03*
X901Y1736D03*
X801Y1736D03*
X701Y1736D03*
X601Y1736D03*
X501Y1736D03*
X401Y1736D03*
X301Y1736D03*
X201Y1736D03*
X101Y1736D03*
X601Y1250D03*
X1401Y1536D03*
X1401Y1636D03*
X1401Y1436D03*
X1401Y1236D03*
X1401Y1336D03*
X1401Y1136D03*
X1301Y1136D03*
X1201Y1136D03*
X1101Y1136D03*
X1001Y1136D03*
X901Y1136D03*
X801Y1136D03*
X701Y1136D03*
X601Y1136D03*
X501Y1136D03*
X401Y1136D03*
X301Y1136D03*
X201Y1136D03*
X101Y1136D03*
X201Y1250D03*
X501Y1250D03*
X401Y1250D03*
X1401Y1736D03*
X1301Y1736D03*
X1201Y1736D03*
X1101Y1736D03*
X1001Y1736D03*
X901Y1736D03*
X801Y1736D03*
X701Y1736D03*
X601Y1736D03*
X501Y1736D03*
X401Y1736D03*
X301Y1736D03*
X201Y1736D03*
X101Y1736D03*
X601Y1250D03*
X1401Y1536D03*
X1401Y1636D03*
X1401Y1436D03*
X1401Y1236D03*
X1401Y1336D03*
G54D15*
X751Y2236D03*
X851Y2236D03*
X951Y2236D03*
X1051Y2236D03*
X751Y2336D03*
X851Y2336D03*
X951Y2336D03*
X1051Y2336D03*
X751Y2236D03*
X851Y2236D03*
X951Y2236D03*
X1051Y2236D03*
X751Y2336D03*
X851Y2336D03*
X951Y2336D03*
X1051Y2336D03*
G04 End of Mask1*
M02*