; NON-PLATED HOLES START AT T1
; THROUGH (PLATED) HOLES START AT T100
M48
INCH
T1C0.035433
T100C0.035000
T101C0.033944
T102C0.039111
T103C0.069562
T104C0.040000
T105C0.015748
%
T1
X027717Y013654
X027717Y014835
T100
X025013Y020630
X013013Y025859
X022454Y009630
X015284Y015418
X015284Y012859
X015572Y003859
X013013Y003859
X015572Y002087
X022454Y018859
X003454Y007859
X022454Y007859
X015572Y025859
X006013Y020630
X006013Y009630
X003454Y020630
X013513Y015418
X025013Y018859
X003454Y018859
X025013Y007859
X006013Y007859
X013013Y002087
X003454Y009630
X006013Y018859
X013013Y024087
X015572Y024087
X013513Y012859
X022454Y020630
X025013Y009630
T101
X009513Y023359
X010513Y023359
X010513Y022359
X007513Y023359
X009513Y022359
X008513Y023359
X008513Y022359
X007513Y022359
T102
X014013Y017359
X005013Y017359
X012013Y017359
X008013Y011359
X013013Y011359
X009012Y017359
X002013Y011359
X004013Y011359
X010013Y011359
X014013Y016359
X006014Y012501
X003013Y011359
X014013Y015359
X001013Y017359
X004013Y017359
X006013Y011359
X012013Y011359
X014013Y011359
X002013Y017359
X005014Y012501
X007013Y017359
X009012Y011359
X006013Y017359
X002013Y012501
X004013Y012501
X013013Y017359
X011013Y011359
X003013Y017359
X014013Y012359
X008013Y017359
X014013Y014359
X014013Y013359
X005013Y011359
X010013Y017359
X011013Y017359
X001013Y011359
X007013Y011359
T103
X021013Y013359
X017076Y013359
T104
X015767Y020614
X012257Y007512
X009207Y018868
X018817Y009257
T105
X018513Y026859
X020013Y008359
X025013Y014359
X016513Y017859
X008013Y007359
X009513Y026859
X010013Y005359
X016013Y005359
X013013Y009859
X020013Y009359
T00
M30
