G04 MADE WITH FRITZING*
G04 WWW.FRITZING.ORG*
G04 DOUBLE SIDED*
G04 HOLES PLATED*
G04 CONTOUR ON CENTER OF CONTOUR VECTOR*
%ASAXBY*%
%FSLAX23Y23*%
%MOIN*%
%OFA0B0*%
%SFA1.0B1.0*%
%ADD10C,0.039370*%
%ADD11C,0.085437*%
%ADD12C,0.075000*%
%ADD13C,0.070000*%
%ADD14C,0.066889*%
%ADD15C,0.067278*%
%ADD16C,0.024000*%
%LNCOPPER1*%
G90*
G70*
G54D10*
X2501Y1436D03*
X801Y736D03*
X1001Y536D03*
X1601Y536D03*
X1301Y986D03*
G54D11*
X2101Y1336D03*
X1708Y1336D03*
G54D10*
X951Y2686D03*
X1851Y2686D03*
X2001Y936D03*
X2001Y836D03*
X1651Y1786D03*
G54D12*
X601Y1886D03*
X345Y1886D03*
X601Y2063D03*
X345Y2063D03*
X1301Y2586D03*
X1557Y2586D03*
X1301Y2409D03*
X1557Y2409D03*
X2501Y1886D03*
X2245Y1886D03*
X2501Y2063D03*
X2245Y2063D03*
X2501Y786D03*
X2245Y786D03*
X2501Y963D03*
X2245Y963D03*
X1301Y386D03*
X1557Y386D03*
X1301Y209D03*
X1557Y209D03*
X1351Y1286D03*
X1351Y1542D03*
X1528Y1286D03*
X1528Y1542D03*
X345Y963D03*
X601Y963D03*
X345Y786D03*
X601Y786D03*
G54D13*
X1226Y751D03*
X1882Y926D03*
X1577Y2061D03*
X921Y1887D03*
G54D14*
X1401Y1136D03*
X1301Y1136D03*
X1201Y1136D03*
X1101Y1136D03*
X1001Y1136D03*
X901Y1136D03*
X801Y1136D03*
X701Y1136D03*
X601Y1136D03*
X501Y1136D03*
X401Y1136D03*
X301Y1136D03*
X201Y1136D03*
X101Y1136D03*
X201Y1250D03*
X501Y1250D03*
X401Y1250D03*
X1401Y1736D03*
X1301Y1736D03*
X1201Y1736D03*
X1101Y1736D03*
X1001Y1736D03*
X901Y1736D03*
X801Y1736D03*
X701Y1736D03*
X601Y1736D03*
X501Y1736D03*
X401Y1736D03*
X301Y1736D03*
X201Y1736D03*
X101Y1736D03*
X601Y1250D03*
X1401Y1536D03*
X1401Y1636D03*
X1401Y1436D03*
X1401Y1236D03*
X1401Y1336D03*
X1401Y1136D03*
X1301Y1136D03*
X1201Y1136D03*
X1101Y1136D03*
X1001Y1136D03*
X901Y1136D03*
X801Y1136D03*
X701Y1136D03*
X601Y1136D03*
X501Y1136D03*
X401Y1136D03*
X301Y1136D03*
X201Y1136D03*
X101Y1136D03*
X201Y1250D03*
X501Y1250D03*
X401Y1250D03*
X1401Y1736D03*
X1301Y1736D03*
X1201Y1736D03*
X1101Y1736D03*
X1001Y1736D03*
X901Y1736D03*
X801Y1736D03*
X701Y1736D03*
X601Y1736D03*
X501Y1736D03*
X401Y1736D03*
X301Y1736D03*
X201Y1736D03*
X101Y1736D03*
X601Y1250D03*
X1401Y1536D03*
X1401Y1636D03*
X1401Y1436D03*
X1401Y1236D03*
X1401Y1336D03*
G54D15*
X751Y2236D03*
X851Y2236D03*
X951Y2236D03*
X1051Y2236D03*
X751Y2336D03*
X851Y2336D03*
X951Y2336D03*
X1051Y2336D03*
X751Y2236D03*
X851Y2236D03*
X951Y2236D03*
X1051Y2236D03*
X751Y2336D03*
X851Y2336D03*
X951Y2336D03*
X1051Y2336D03*
G54D16*
X2602Y1337D02*
X2602Y786D01*
D02*
X1901Y1734D02*
X1599Y2039D01*
D02*
X1901Y1237D02*
X1901Y1734D01*
D02*
X1650Y987D02*
X1901Y1237D01*
D02*
X1320Y986D02*
X1650Y987D01*
D02*
X1582Y536D02*
X1020Y536D01*
D02*
X803Y886D02*
X652Y1037D01*
D02*
X652Y1037D02*
X302Y1037D01*
D02*
X302Y1037D02*
X301Y1105D01*
D02*
X801Y755D02*
X803Y886D01*
D02*
X2602Y786D02*
X2452Y636D01*
D02*
X2452Y636D02*
X402Y636D01*
D02*
X402Y636D02*
X252Y786D01*
D02*
X252Y786D02*
X252Y987D01*
D02*
X252Y987D02*
X123Y1114D01*
D02*
X2515Y1423D02*
X2602Y1337D01*
D02*
X200Y1786D02*
X201Y1767D01*
D02*
X452Y2035D02*
X200Y1786D01*
D02*
X452Y2287D02*
X452Y2035D01*
D02*
X601Y2436D02*
X452Y2287D01*
D02*
X852Y2364D02*
X852Y2436D01*
D02*
X852Y2436D02*
X601Y2436D01*
D02*
X602Y2335D02*
X723Y2336D01*
D02*
X601Y2092D02*
X602Y2335D01*
D02*
X350Y2037D02*
X150Y1837D01*
D02*
X150Y1837D02*
X102Y1785D01*
D02*
X1651Y2137D02*
X1599Y2084D01*
D02*
X1651Y2687D02*
X1651Y2137D01*
D02*
X970Y2686D02*
X1651Y2687D01*
D02*
X952Y2186D02*
X1301Y1836D01*
D02*
X1301Y1836D02*
X1301Y1767D01*
D02*
X952Y2208D02*
X952Y2186D01*
D02*
X351Y2035D02*
X350Y2037D01*
D02*
X102Y1785D02*
X101Y1767D01*
D02*
X801Y1167D02*
X801Y1685D01*
D02*
X801Y1685D02*
X621Y1866D01*
D02*
X1250Y886D02*
X1023Y1114D01*
D02*
X2150Y1787D02*
X2150Y887D01*
D02*
X2226Y1865D02*
X2150Y1787D01*
D02*
X2150Y887D02*
X1250Y886D01*
D02*
X1201Y837D02*
X1982Y836D01*
D02*
X923Y1114D02*
X1201Y837D01*
D02*
X2000Y1785D02*
X2001Y955D01*
D02*
X2101Y1885D02*
X2000Y1785D01*
D02*
X2101Y2435D02*
X2101Y1885D01*
D02*
X1865Y2672D02*
X2101Y2435D01*
D02*
X1650Y1137D02*
X1432Y1136D01*
D02*
X1801Y1287D02*
X1650Y1137D01*
D02*
X1802Y1636D02*
X1801Y1287D01*
D02*
X1665Y1773D02*
X1802Y1636D01*
D02*
X1500Y1985D02*
X1500Y1638D01*
D02*
X1500Y1638D02*
X1423Y1558D01*
D02*
X1555Y2039D02*
X1500Y1985D01*
G04 End of Copper1*
M02*