G04 MADE WITH FRITZING*
G04 WWW.FRITZING.ORG*
G04 DOUBLE SIDED*
G04 HOLES PLATED*
G04 CONTOUR ON CENTER OF CONTOUR VECTOR*
%ASAXBY*%
%FSLAX23Y23*%
%MOIN*%
%OFA0B0*%
%SFA1.0B1.0*%
%ADD10C,0.035433*%
%ADD11R,0.062992X0.137795*%
%ADD12R,0.031496X0.039370*%
%LNPASTEMASK0*%
G90*
G70*
G54D10*
X2772Y1484D03*
X2772Y1365D03*
X2772Y1484D03*
X2772Y1365D03*
X2772Y1484D03*
X2772Y1365D03*
G54D11*
X1851Y499D03*
X1851Y286D03*
G54D12*
X2815Y1588D03*
G36*
X2713Y1608D02*
X2744Y1608D01*
X2744Y1568D01*
X2713Y1568D01*
X2713Y1608D01*
G37*
D02*
G36*
X2799Y1281D02*
X2831Y1281D01*
X2831Y1241D01*
X2799Y1241D01*
X2799Y1281D01*
G37*
D02*
G36*
X2713Y1281D02*
X2744Y1281D01*
X2744Y1241D01*
X2713Y1241D01*
X2713Y1281D01*
G37*
D02*
G36*
X2654Y1527D02*
X2713Y1527D01*
X2713Y1499D01*
X2654Y1499D01*
X2654Y1527D01*
G37*
D02*
G36*
X2654Y1409D02*
X2713Y1409D01*
X2713Y1381D01*
X2654Y1381D01*
X2654Y1409D01*
G37*
D02*
G36*
X2654Y1350D02*
X2713Y1350D01*
X2713Y1322D01*
X2654Y1322D01*
X2654Y1350D01*
G37*
D02*
G04 End of PasteMask0*
M02*