M48
;GenerationSoftware,Autodesk,EAGLE,9.0.0*%
;CreationDate,2018-08-29T12:33:51Z*%
FMAT,2
ICI,OFF
METRIC,TZ,000.000
T7C0.350
T6C0.500
T5C0.600
T4C0.700
T3C0.750
T2C1.016
T1C1.930
%
G90
M71
T1
X68072Y35916
X68072Y24028
X68072Y27991
X68072Y31953
T2
X56134Y45339
X58674Y45339
X27000Y36347
X29540Y36347
X27000Y33807
X29540Y33807
X27000Y31267
X21971Y9652
X29540Y31267
X27000Y28727
X29540Y28727
X27000Y26187
X27000Y23647
X29540Y23647
X27000Y21107
X29540Y21107
X27000Y18567
X29540Y18567
X61722Y26492
X61722Y31013
X55220Y26492
X55220Y31013
X9271Y9652
X11811Y9652
X14351Y9652
X16891Y9652
X19431Y9652
X29540Y26187
X24511Y9652
X27051Y9652
X48514Y45339
X51054Y45339
X53594Y45339
T3
X36805Y25828
T4
X42180Y23114
X35755Y30903
X35755Y26603
X44180Y23114
T5
X36805Y31678
T6
X37855Y28753
T7
X15113Y29693
X18313Y24714
X15113Y34138
X51918Y25425
X53873Y24181
X16535Y29693
X20269Y25070
X34138Y36982
X32715Y36982
X15824Y18313
X47117Y44094
X17958Y30404
X18669Y34671
X23114Y32715
X20980Y25781
X20447Y27381
X19025Y27381
X15113Y35204
X19025Y30404
M30