G04 EAGLE Gerber X2 export*
%TF.Part,Single*%
%TF.FileFunction,Profile,NP*%
%TF.FilePolarity,Positive*%
%TF.GenerationSoftware,Autodesk,EAGLE,9.0.0*%
%TF.CreationDate,2018-08-29T12:33:52Z*%
G75*
%MOMM*%
%FSLAX34Y34*%
%LPD*%
%AMOC8*
5,1,8,0,0,1.08239X$1,22.5*%
G01*
%ADD10C,0.254000*%


D10*
X0Y76200D02*
X711200Y76200D01*
X711200Y463550D01*
X120701Y463550D01*
X120701Y332308D01*
X0Y211607D01*
X0Y76200D01*
X376046Y278028D02*
X376056Y277810D01*
X376084Y277594D01*
X376131Y277381D01*
X376197Y277173D01*
X376280Y276971D01*
X376381Y276778D01*
X376498Y276594D01*
X376631Y276421D01*
X376778Y276260D01*
X376939Y276113D01*
X377112Y275980D01*
X377296Y275863D01*
X377489Y275762D01*
X377691Y275679D01*
X377899Y275613D01*
X378112Y275566D01*
X378328Y275538D01*
X378546Y275528D01*
X378764Y275538D01*
X378980Y275566D01*
X379193Y275613D01*
X379401Y275679D01*
X379603Y275762D01*
X379796Y275863D01*
X379980Y275980D01*
X380153Y276113D01*
X380314Y276260D01*
X380461Y276421D01*
X380594Y276594D01*
X380711Y276778D01*
X380812Y276971D01*
X380895Y277173D01*
X380961Y277381D01*
X381008Y277594D01*
X381037Y277810D01*
X381046Y278028D01*
X381046Y297028D01*
X381037Y297246D01*
X381008Y297462D01*
X380961Y297675D01*
X380895Y297883D01*
X380812Y298085D01*
X380711Y298278D01*
X380594Y298462D01*
X380461Y298635D01*
X380314Y298796D01*
X380153Y298943D01*
X379980Y299076D01*
X379796Y299193D01*
X379603Y299294D01*
X379401Y299377D01*
X379193Y299443D01*
X378980Y299490D01*
X378764Y299519D01*
X378546Y299528D01*
X378328Y299519D01*
X378112Y299490D01*
X377899Y299443D01*
X377691Y299377D01*
X377489Y299294D01*
X377296Y299193D01*
X377112Y299076D01*
X376939Y298943D01*
X376778Y298796D01*
X376631Y298635D01*
X376498Y298462D01*
X376381Y298278D01*
X376280Y298085D01*
X376197Y297883D01*
X376131Y297675D01*
X376084Y297462D01*
X376056Y297246D01*
X376046Y297028D01*
X376046Y278028D01*
X367810Y313778D02*
X367344Y313852D01*
X366894Y313998D01*
X366474Y314212D01*
X366092Y314490D01*
X365758Y314824D01*
X365480Y315206D01*
X365266Y315626D01*
X365120Y316076D01*
X365046Y316542D01*
X365046Y317014D01*
X365120Y317481D01*
X365266Y317930D01*
X365480Y318350D01*
X365758Y318732D01*
X366092Y319066D01*
X366474Y319344D01*
X366894Y319558D01*
X367344Y319704D01*
X367810Y319778D01*
X368282Y319778D01*
X368749Y319704D01*
X369198Y319558D01*
X369618Y319344D01*
X370000Y319066D01*
X370334Y318732D01*
X370612Y318350D01*
X370826Y317930D01*
X370972Y317481D01*
X371046Y317014D01*
X371046Y316542D01*
X370972Y316076D01*
X370826Y315626D01*
X370612Y315206D01*
X370334Y314824D01*
X370000Y314490D01*
X369618Y314212D01*
X369198Y313998D01*
X368749Y313852D01*
X368282Y313778D01*
X367810Y313778D01*
X367800Y254528D02*
X367313Y254592D01*
X366838Y254719D01*
X366384Y254908D01*
X365958Y255153D01*
X365568Y255453D01*
X365221Y255800D01*
X364921Y256190D01*
X364676Y256616D01*
X364487Y257070D01*
X364360Y257545D01*
X364296Y258032D01*
X364296Y258524D01*
X364360Y259011D01*
X364487Y259486D01*
X364676Y259940D01*
X364921Y260366D01*
X365221Y260756D01*
X365568Y261103D01*
X365958Y261403D01*
X366384Y261649D01*
X366838Y261837D01*
X367313Y261964D01*
X367800Y262028D01*
X368292Y262028D01*
X368779Y261964D01*
X369254Y261837D01*
X369708Y261649D01*
X370134Y261403D01*
X370524Y261103D01*
X370871Y260756D01*
X371171Y260366D01*
X371417Y259940D01*
X371605Y259486D01*
X371732Y259011D01*
X371796Y258524D01*
X371796Y258032D01*
X371732Y257545D01*
X371605Y257070D01*
X371417Y256616D01*
X371171Y256190D01*
X370871Y255800D01*
X370524Y255453D01*
X370134Y255153D01*
X369708Y254908D01*
X369254Y254719D01*
X368779Y254592D01*
X368292Y254528D01*
X367800Y254528D01*
X378349Y285028D02*
X377961Y285090D01*
X377586Y285211D01*
X377236Y285390D01*
X376917Y285621D01*
X376639Y285899D01*
X376408Y286218D01*
X376229Y286568D01*
X376108Y286943D01*
X376046Y287331D01*
X376046Y287725D01*
X376108Y288113D01*
X376229Y288488D01*
X376408Y288838D01*
X376639Y289157D01*
X376917Y289435D01*
X377236Y289666D01*
X377586Y289845D01*
X377961Y289966D01*
X378349Y290028D01*
X378743Y290028D01*
X379131Y289966D01*
X379506Y289845D01*
X379856Y289666D01*
X380175Y289435D01*
X380453Y289157D01*
X380684Y288838D01*
X380863Y288488D01*
X380984Y288113D01*
X381046Y287725D01*
X381046Y287331D01*
X380984Y286943D01*
X380863Y286568D01*
X380684Y286218D01*
X380453Y285899D01*
X380175Y285621D01*
X379856Y285390D01*
X379506Y285211D01*
X379131Y285090D01*
X378743Y285028D01*
X378349Y285028D01*
M02*
