; NON-PLATED HOLES START AT T1
; THROUGH (PLATED) HOLES START AT T100
M48
INCH
T1C0.033465
T100C0.039111
T101C0.051139
T102C0.040000
T103C0.039370
T104C0.098425
T105C0.027559
T106C0.015748
T107C0.033944
%
T1
X022509Y030201
X021328Y030201
T100
X002586Y014209
X010586Y008209
X013586Y011209
X012586Y008209
X013586Y013209
X001586Y014209
X006586Y014209
X013586Y014209
X002586Y008209
X008586Y008209
X007586Y014209
X006586Y008209
X011586Y014209
X009586Y008209
X007586Y008209
X000586Y008209
X005586Y014209
X004587Y013067
X001586Y013067
X005587Y013066
X004586Y014209
X013586Y012209
X011586Y008209
X005586Y008209
X013586Y009209
X003586Y014209
X001586Y008209
X000586Y014209
X004586Y008209
X012586Y014209
X003586Y008209
X008586Y014209
X009586Y014209
X013586Y010209
X013586Y008209
X010586Y014209
X003586Y013067
T101
X032403Y017210
X032403Y018589
X032403Y015832
X032403Y019966
T102
X017091Y014364
X017091Y018364
X016091Y015364
X016091Y018364
X017091Y020364
X016091Y014364
X017091Y017364
X016091Y019364
X017091Y015364
X016091Y016364
X017091Y013364
X016091Y013364
X016091Y020364
X016091Y017364
X017091Y019364
X017091Y016364
T103
X034403Y010589
X034403Y012589
X034403Y009589
X034403Y008589
X034403Y013589
X034403Y007589
X034403Y014589
X034403Y011589
T104
X044903Y007889
X044903Y014289
T105
X031903Y010589
X031903Y009589
T106
X010403Y021089
X029403Y022589
X015403Y007589
X023903Y017089
X022903Y008589
X019903Y018589
X023903Y007589
X014403Y020089
X019403Y013589
X010403Y020089
X020403Y020089
X020903Y017089
X019903Y017089
X020403Y012589
X018903Y015089
X038903Y027089
X022403Y014589
X018903Y011089
X037403Y010589
X031903Y026089
X015403Y023089
X021403Y019089
X026903Y017089
X020408Y015082
X025903Y016589
X033403Y022589
X046903Y010589
X016903Y023089
X014403Y009589
X026903Y014589
X022903Y021089
X020903Y006589
T107
X036903Y026588
X035903Y025588
X035903Y024589
X035903Y027589
X035903Y026588
X036903Y025588
X036903Y024589
X036903Y027589
T00
M30
