G04 MADE WITH FRITZING*
G04 WWW.FRITZING.ORG*
G04 DOUBLE SIDED*
G04 HOLES PLATED*
G04 CONTOUR ON CENTER OF CONTOUR VECTOR*
%ASAXBY*%
%FSLAX23Y23*%
%MOIN*%
%OFA0B0*%
%SFA1.0B1.0*%
%ADD10C,0.075000*%
%ADD11C,0.049370*%
%ADD12C,0.086139*%
%ADD13C,0.077278*%
%ADD14C,0.084000*%
%ADD15C,0.148425*%
%ADD16C,0.086000*%
%ADD17C,0.076889*%
%ADD18R,0.084000X0.084000*%
%ADD19R,0.001000X0.001000*%
%LNMASK0*%
G90*
G70*
G54D10*
X3190Y1059D03*
X3190Y959D03*
G54D11*
X4690Y1059D03*
X1540Y759D03*
X1890Y1109D03*
X1940Y1359D03*
X2090Y1709D03*
X1990Y1859D03*
X2140Y1909D03*
X2290Y2109D03*
G54D12*
X3240Y1997D03*
X3240Y1859D03*
X3240Y1721D03*
X3240Y1583D03*
G54D11*
X1990Y1709D03*
X2940Y2259D03*
X2690Y1709D03*
X2690Y1459D03*
X3890Y2709D03*
X3190Y2609D03*
X3740Y1059D03*
X1440Y959D03*
X1890Y1509D03*
X2040Y1259D03*
X2240Y1459D03*
X1540Y2309D03*
X2290Y859D03*
X2390Y759D03*
X2390Y1709D03*
X2041Y1508D03*
X1040Y2009D03*
X2590Y1659D03*
X1040Y2109D03*
X2040Y2009D03*
X1690Y2309D03*
X1440Y2009D03*
X3340Y2259D03*
X2090Y659D03*
G54D13*
X3690Y2459D03*
X3690Y2559D03*
X3690Y2659D03*
X3690Y2759D03*
X3590Y2459D03*
X3590Y2559D03*
X3590Y2659D03*
X3590Y2759D03*
X3690Y2459D03*
X3690Y2559D03*
X3690Y2659D03*
X3690Y2759D03*
X3590Y2459D03*
X3590Y2559D03*
X3590Y2659D03*
X3590Y2759D03*
G54D14*
X1709Y2036D03*
X1709Y1936D03*
X1709Y1836D03*
X1709Y1736D03*
X1709Y1636D03*
X1709Y1536D03*
X1709Y1436D03*
X1709Y1336D03*
X1609Y2036D03*
X1609Y1936D03*
X1609Y1836D03*
X1609Y1736D03*
X1609Y1636D03*
X1609Y1536D03*
X1609Y1436D03*
X1609Y1336D03*
G54D15*
X4490Y1429D03*
X4490Y789D03*
G54D16*
X3440Y759D03*
X3440Y859D03*
X3440Y959D03*
X3440Y1059D03*
X3440Y1159D03*
X3440Y1259D03*
X3440Y1359D03*
X3440Y1459D03*
G54D17*
X1359Y1421D03*
X1259Y1421D03*
X1159Y1421D03*
X1059Y1421D03*
X959Y1421D03*
X859Y1421D03*
X759Y1421D03*
X659Y1421D03*
X559Y1421D03*
X459Y1421D03*
X359Y1421D03*
X259Y1421D03*
X159Y1421D03*
X59Y1421D03*
X159Y1307D03*
X459Y1307D03*
X359Y1307D03*
X1359Y821D03*
X1259Y821D03*
X1159Y821D03*
X1059Y821D03*
X959Y821D03*
X859Y821D03*
X759Y821D03*
X659Y821D03*
X559Y821D03*
X459Y821D03*
X359Y821D03*
X259Y821D03*
X159Y821D03*
X59Y821D03*
X559Y1307D03*
X1359Y1021D03*
X1359Y921D03*
X1359Y1121D03*
X1359Y1321D03*
X1359Y1221D03*
G54D18*
X1609Y2036D03*
G54D19*
X3195Y2042D02*
X3284Y2042D01*
X3195Y2041D02*
X3284Y2041D01*
X3195Y2040D02*
X3284Y2040D01*
X3195Y2039D02*
X3284Y2039D01*
X3195Y2038D02*
X3284Y2038D01*
X3195Y2037D02*
X3284Y2037D01*
X3195Y2036D02*
X3284Y2036D01*
X3195Y2035D02*
X3284Y2035D01*
X3195Y2034D02*
X3284Y2034D01*
X3195Y2033D02*
X3284Y2033D01*
X3195Y2032D02*
X3284Y2032D01*
X3195Y2031D02*
X3284Y2031D01*
X3195Y2030D02*
X3284Y2030D01*
X3195Y2029D02*
X3284Y2029D01*
X3195Y2028D02*
X3284Y2028D01*
X3195Y2027D02*
X3284Y2027D01*
X3195Y2026D02*
X3284Y2026D01*
X3195Y2025D02*
X3284Y2025D01*
X3195Y2024D02*
X3284Y2024D01*
X3195Y2023D02*
X3284Y2023D01*
X3195Y2022D02*
X3284Y2022D01*
X3195Y2021D02*
X3284Y2021D01*
X3195Y2020D02*
X3284Y2020D01*
X3195Y2019D02*
X3284Y2019D01*
X3195Y2018D02*
X3284Y2018D01*
X3195Y2017D02*
X3284Y2017D01*
X3195Y2016D02*
X3234Y2016D01*
X3244Y2016D02*
X3284Y2016D01*
X3195Y2015D02*
X3231Y2015D01*
X3247Y2015D02*
X3284Y2015D01*
X3195Y2014D02*
X3229Y2014D01*
X3249Y2014D02*
X3284Y2014D01*
X3195Y2013D02*
X3228Y2013D01*
X3251Y2013D02*
X3284Y2013D01*
X3195Y2012D02*
X3227Y2012D01*
X3252Y2012D02*
X3284Y2012D01*
X3195Y2011D02*
X3226Y2011D01*
X3253Y2011D02*
X3284Y2011D01*
X3195Y2010D02*
X3225Y2010D01*
X3254Y2010D02*
X3284Y2010D01*
X3195Y2009D02*
X3224Y2009D01*
X3255Y2009D02*
X3284Y2009D01*
X3195Y2008D02*
X3223Y2008D01*
X3255Y2008D02*
X3284Y2008D01*
X3195Y2007D02*
X3223Y2007D01*
X3256Y2007D02*
X3284Y2007D01*
X3195Y2006D02*
X3222Y2006D01*
X3256Y2006D02*
X3284Y2006D01*
X3195Y2005D02*
X3221Y2005D01*
X3257Y2005D02*
X3284Y2005D01*
X3195Y2004D02*
X3221Y2004D01*
X3257Y2004D02*
X3284Y2004D01*
X3195Y2003D02*
X3221Y2003D01*
X3258Y2003D02*
X3284Y2003D01*
X3195Y2002D02*
X3221Y2002D01*
X3258Y2002D02*
X3284Y2002D01*
X3195Y2001D02*
X3220Y2001D01*
X3258Y2001D02*
X3284Y2001D01*
X3195Y2000D02*
X3220Y2000D01*
X3258Y2000D02*
X3284Y2000D01*
X3195Y1999D02*
X3220Y1999D01*
X3258Y1999D02*
X3284Y1999D01*
X3195Y1998D02*
X3220Y1998D01*
X3258Y1998D02*
X3284Y1998D01*
X3195Y1997D02*
X3220Y1997D01*
X3258Y1997D02*
X3284Y1997D01*
X3195Y1996D02*
X3220Y1996D01*
X3258Y1996D02*
X3284Y1996D01*
X3195Y1995D02*
X3220Y1995D01*
X3258Y1995D02*
X3284Y1995D01*
X3195Y1994D02*
X3220Y1994D01*
X3258Y1994D02*
X3284Y1994D01*
X3195Y1993D02*
X3221Y1993D01*
X3258Y1993D02*
X3284Y1993D01*
X3195Y1992D02*
X3221Y1992D01*
X3257Y1992D02*
X3284Y1992D01*
X3195Y1991D02*
X3221Y1991D01*
X3257Y1991D02*
X3284Y1991D01*
X3195Y1990D02*
X3222Y1990D01*
X3257Y1990D02*
X3284Y1990D01*
X3195Y1989D02*
X3222Y1989D01*
X3256Y1989D02*
X3284Y1989D01*
X3195Y1988D02*
X3223Y1988D01*
X3256Y1988D02*
X3284Y1988D01*
X3195Y1987D02*
X3224Y1987D01*
X3255Y1987D02*
X3284Y1987D01*
X3195Y1986D02*
X3224Y1986D01*
X3254Y1986D02*
X3284Y1986D01*
X3195Y1985D02*
X3225Y1985D01*
X3253Y1985D02*
X3284Y1985D01*
X3195Y1984D02*
X3226Y1984D01*
X3252Y1984D02*
X3284Y1984D01*
X3195Y1983D02*
X3228Y1983D01*
X3251Y1983D02*
X3284Y1983D01*
X3195Y1982D02*
X3229Y1982D01*
X3250Y1982D02*
X3284Y1982D01*
X3195Y1981D02*
X3231Y1981D01*
X3248Y1981D02*
X3284Y1981D01*
X3195Y1980D02*
X3234Y1980D01*
X3245Y1980D02*
X3284Y1980D01*
X3195Y1979D02*
X3284Y1979D01*
X3195Y1978D02*
X3284Y1978D01*
X3195Y1977D02*
X3284Y1977D01*
X3195Y1976D02*
X3284Y1976D01*
X3195Y1975D02*
X3284Y1975D01*
X3195Y1974D02*
X3284Y1974D01*
X3195Y1973D02*
X3284Y1973D01*
X3195Y1972D02*
X3284Y1972D01*
X3195Y1971D02*
X3284Y1971D01*
X3195Y1970D02*
X3284Y1970D01*
X3195Y1969D02*
X3284Y1969D01*
X3195Y1968D02*
X3284Y1968D01*
X3195Y1967D02*
X3284Y1967D01*
X3195Y1966D02*
X3284Y1966D01*
X3195Y1965D02*
X3284Y1965D01*
X3195Y1964D02*
X3284Y1964D01*
X3195Y1963D02*
X3284Y1963D01*
X3195Y1962D02*
X3284Y1962D01*
X3195Y1961D02*
X3284Y1961D01*
X3195Y1960D02*
X3284Y1960D01*
X3195Y1959D02*
X3284Y1959D01*
X3195Y1958D02*
X3284Y1958D01*
X3195Y1957D02*
X3284Y1957D01*
X3195Y1956D02*
X3284Y1956D01*
X3195Y1955D02*
X3284Y1955D01*
X3195Y1954D02*
X3284Y1954D01*
X3195Y1953D02*
X3283Y1953D01*
X3152Y1097D02*
X3226Y1097D01*
X3152Y1096D02*
X3226Y1096D01*
X3152Y1095D02*
X3226Y1095D01*
X3152Y1094D02*
X3226Y1094D01*
X3152Y1093D02*
X3226Y1093D01*
X3152Y1092D02*
X3226Y1092D01*
X3152Y1091D02*
X3226Y1091D01*
X3152Y1090D02*
X3226Y1090D01*
X3152Y1089D02*
X3226Y1089D01*
X3152Y1088D02*
X3226Y1088D01*
X3152Y1087D02*
X3226Y1087D01*
X3152Y1086D02*
X3226Y1086D01*
X3152Y1085D02*
X3226Y1085D01*
X3152Y1084D02*
X3226Y1084D01*
X3152Y1083D02*
X3226Y1083D01*
X3152Y1082D02*
X3226Y1082D01*
X3152Y1081D02*
X3226Y1081D01*
X3152Y1080D02*
X3226Y1080D01*
X3152Y1079D02*
X3226Y1079D01*
X3152Y1078D02*
X3226Y1078D01*
X3152Y1077D02*
X3226Y1077D01*
X3152Y1076D02*
X3226Y1076D01*
X3152Y1075D02*
X3226Y1075D01*
X3152Y1074D02*
X3226Y1074D01*
X3152Y1073D02*
X3226Y1073D01*
X3152Y1072D02*
X3226Y1072D01*
X3152Y1071D02*
X3226Y1071D01*
X3152Y1070D02*
X3226Y1070D01*
X3152Y1069D02*
X3226Y1069D01*
X3152Y1068D02*
X3185Y1068D01*
X3194Y1068D02*
X3226Y1068D01*
X3152Y1067D02*
X3183Y1067D01*
X3195Y1067D02*
X3226Y1067D01*
X3152Y1066D02*
X3182Y1066D01*
X3196Y1066D02*
X3226Y1066D01*
X3152Y1065D02*
X3181Y1065D01*
X3197Y1065D02*
X3226Y1065D01*
X3152Y1064D02*
X3181Y1064D01*
X3198Y1064D02*
X3226Y1064D01*
X3152Y1063D02*
X3180Y1063D01*
X3198Y1063D02*
X3226Y1063D01*
X3152Y1062D02*
X3180Y1062D01*
X3198Y1062D02*
X3226Y1062D01*
X3152Y1061D02*
X3180Y1061D01*
X3198Y1061D02*
X3226Y1061D01*
X3152Y1060D02*
X3180Y1060D01*
X3199Y1060D02*
X3226Y1060D01*
X3152Y1059D02*
X3180Y1059D01*
X3198Y1059D02*
X3226Y1059D01*
X3152Y1058D02*
X3180Y1058D01*
X3198Y1058D02*
X3226Y1058D01*
X3152Y1057D02*
X3181Y1057D01*
X3198Y1057D02*
X3226Y1057D01*
X3152Y1056D02*
X3181Y1056D01*
X3197Y1056D02*
X3226Y1056D01*
X3152Y1055D02*
X3182Y1055D01*
X3197Y1055D02*
X3226Y1055D01*
X3152Y1054D02*
X3183Y1054D01*
X3196Y1054D02*
X3226Y1054D01*
X3152Y1053D02*
X3184Y1053D01*
X3195Y1053D02*
X3226Y1053D01*
X3152Y1052D02*
X3186Y1052D01*
X3193Y1052D02*
X3226Y1052D01*
X3152Y1051D02*
X3226Y1051D01*
X3152Y1050D02*
X3226Y1050D01*
X3152Y1049D02*
X3226Y1049D01*
X3152Y1048D02*
X3226Y1048D01*
X3152Y1047D02*
X3226Y1047D01*
X3152Y1046D02*
X3226Y1046D01*
X3152Y1045D02*
X3226Y1045D01*
X3152Y1044D02*
X3226Y1044D01*
X3152Y1043D02*
X3226Y1043D01*
X3152Y1042D02*
X3226Y1042D01*
X3152Y1041D02*
X3226Y1041D01*
X3152Y1040D02*
X3226Y1040D01*
X3152Y1039D02*
X3226Y1039D01*
X3152Y1038D02*
X3226Y1038D01*
X3152Y1037D02*
X3226Y1037D01*
X3152Y1036D02*
X3226Y1036D01*
X3152Y1035D02*
X3226Y1035D01*
X3152Y1034D02*
X3226Y1034D01*
X3152Y1033D02*
X3226Y1033D01*
X3152Y1032D02*
X3226Y1032D01*
X3152Y1031D02*
X3226Y1031D01*
X3152Y1030D02*
X3226Y1030D01*
X3152Y1029D02*
X3226Y1029D01*
X3152Y1028D02*
X3226Y1028D01*
X3152Y1027D02*
X3226Y1027D01*
X3152Y1026D02*
X3226Y1026D01*
X3152Y1025D02*
X3226Y1025D01*
X3152Y1024D02*
X3226Y1024D01*
X3152Y1023D02*
X3226Y1023D01*
D02*
G04 End of Mask0*
M02*