G04 MADE WITH FRITZING*
G04 WWW.FRITZING.ORG*
G04 DOUBLE SIDED*
G04 HOLES PLATED*
G04 CONTOUR ON CENTER OF CONTOUR VECTOR*
%ASAXBY*%
%FSLAX23Y23*%
%MOIN*%
%OFA0B0*%
%SFA1.0B1.0*%
%ADD10C,0.065000*%
%ADD11C,0.039370*%
%ADD12C,0.076139*%
%ADD13C,0.067278*%
%ADD14C,0.074000*%
%ADD15C,0.138425*%
%ADD16C,0.076000*%
%ADD17C,0.066889*%
%ADD18R,0.074000X0.074000*%
%ADD19R,0.039370X0.045276*%
%ADD20C,0.024000*%
%ADD21R,0.001000X0.001000*%
%LNCOPPER1*%
G90*
G70*
G54D10*
X3190Y1059D03*
X3190Y959D03*
X3190Y1059D03*
X3190Y959D03*
G54D11*
X4690Y1059D03*
X1540Y759D03*
X1890Y1109D03*
X1940Y1359D03*
X2090Y1709D03*
X1990Y1859D03*
X2140Y1909D03*
X2290Y2109D03*
G54D12*
X3240Y1997D03*
X3240Y1859D03*
X3240Y1721D03*
X3240Y1583D03*
G54D11*
X1990Y1709D03*
X2940Y2259D03*
X2690Y1709D03*
X2690Y1459D03*
X3890Y2709D03*
X3190Y2609D03*
X3740Y1059D03*
X1440Y959D03*
X1890Y1509D03*
X2040Y1259D03*
X2240Y1459D03*
X1540Y2309D03*
X2290Y859D03*
X2390Y759D03*
X2390Y1709D03*
X2041Y1508D03*
X1040Y2009D03*
X2590Y1659D03*
X1040Y2109D03*
X2040Y2009D03*
X1690Y2309D03*
X1440Y2009D03*
X3340Y2259D03*
X2090Y659D03*
G54D13*
X3690Y2459D03*
X3690Y2559D03*
X3690Y2659D03*
X3690Y2759D03*
X3590Y2459D03*
X3590Y2559D03*
X3590Y2659D03*
X3590Y2759D03*
X3690Y2459D03*
X3690Y2559D03*
X3690Y2659D03*
X3690Y2759D03*
X3590Y2459D03*
X3590Y2559D03*
X3590Y2659D03*
X3590Y2759D03*
G54D14*
X1709Y2036D03*
X1709Y1936D03*
X1709Y1836D03*
X1709Y1736D03*
X1709Y1636D03*
X1709Y1536D03*
X1709Y1436D03*
X1709Y1336D03*
X1609Y2036D03*
X1609Y1936D03*
X1609Y1836D03*
X1609Y1736D03*
X1609Y1636D03*
X1609Y1536D03*
X1609Y1436D03*
X1609Y1336D03*
G54D15*
X4490Y1429D03*
X4490Y789D03*
G54D16*
X3440Y759D03*
X3440Y859D03*
X3440Y959D03*
X3440Y1059D03*
X3440Y1159D03*
X3440Y1259D03*
X3440Y1359D03*
X3440Y1459D03*
G54D17*
X1359Y1421D03*
X1259Y1421D03*
X1159Y1421D03*
X1059Y1421D03*
X959Y1421D03*
X859Y1421D03*
X759Y1421D03*
X659Y1421D03*
X559Y1421D03*
X459Y1421D03*
X359Y1421D03*
X259Y1421D03*
X159Y1421D03*
X59Y1421D03*
X159Y1307D03*
X459Y1307D03*
X359Y1307D03*
X1359Y821D03*
X1259Y821D03*
X1159Y821D03*
X1059Y821D03*
X959Y821D03*
X859Y821D03*
X759Y821D03*
X659Y821D03*
X559Y821D03*
X459Y821D03*
X359Y821D03*
X259Y821D03*
X159Y821D03*
X59Y821D03*
X559Y1307D03*
X1359Y1021D03*
X1359Y921D03*
X1359Y1121D03*
X1359Y1321D03*
X1359Y1221D03*
G54D18*
X1609Y2036D03*
G54D19*
X2093Y2909D03*
X2192Y2909D03*
X2290Y2909D03*
X2093Y3131D03*
X2192Y3131D03*
X2290Y3131D03*
G54D20*
X1290Y1057D02*
X392Y1057D01*
D02*
X392Y1057D02*
X238Y1211D01*
D02*
X238Y1360D02*
X249Y1392D01*
D02*
X1332Y1035D02*
X1290Y1057D01*
D02*
X238Y1211D02*
X238Y1360D01*
D02*
X3291Y861D02*
X3208Y942D01*
D02*
X3410Y859D02*
X3291Y861D01*
D02*
X3410Y1059D02*
X3215Y1059D01*
D02*
X3692Y1861D02*
X4676Y1071D01*
D02*
X3277Y1859D02*
X3692Y1861D01*
D02*
X4688Y908D02*
X3692Y1707D01*
D02*
X3240Y1684D02*
X3240Y1620D01*
D02*
X3288Y1709D02*
X3276Y1712D01*
D02*
X3692Y1707D02*
X3288Y1709D01*
D02*
X3240Y1960D02*
X3240Y1896D01*
D02*
X3340Y2707D02*
X1439Y2707D01*
D02*
X3493Y2860D02*
X3340Y2707D01*
D02*
X3788Y2860D02*
X3493Y2860D01*
D02*
X238Y1509D02*
X252Y1451D01*
D02*
X1439Y2707D02*
X238Y1509D01*
D02*
X3880Y2725D02*
X3788Y2860D01*
D02*
X2192Y2810D02*
X1389Y2810D01*
D02*
X2192Y2892D02*
X2192Y2810D01*
D02*
X1389Y2810D02*
X80Y1443D01*
D02*
X3740Y1359D02*
X3471Y1359D01*
D02*
X3840Y960D02*
X3840Y1259D01*
D02*
X3840Y1259D02*
X3740Y1359D01*
D02*
X3740Y860D02*
X3840Y960D01*
D02*
X3471Y859D02*
X3740Y860D01*
D02*
X2140Y1959D02*
X2277Y2095D01*
D02*
X2140Y1928D02*
X2140Y1959D01*
D02*
X2091Y1760D02*
X2004Y1846D01*
D02*
X2091Y1728D02*
X2091Y1760D01*
D02*
X1891Y1310D02*
X1927Y1346D01*
D02*
X1890Y1128D02*
X1891Y1310D01*
D02*
X1291Y760D02*
X1521Y759D01*
D02*
X1273Y794D02*
X1291Y760D01*
D02*
X1791Y1760D02*
X1739Y1745D01*
D02*
X3841Y2009D02*
X3540Y2011D01*
D02*
X3841Y2560D02*
X3939Y2459D01*
D02*
X2690Y1859D02*
X2690Y1728D01*
D02*
X2990Y2158D02*
X2690Y1859D01*
D02*
X3389Y2158D02*
X2990Y2158D01*
D02*
X3540Y2011D02*
X3389Y2158D01*
D02*
X3939Y2111D02*
X3841Y2009D01*
D02*
X3939Y2459D02*
X3939Y2111D01*
D02*
X3718Y2559D02*
X3841Y2560D01*
D02*
X3321Y2259D02*
X2959Y2259D01*
D02*
X1790Y1907D02*
X1738Y1926D01*
D02*
X1791Y1760D02*
X1790Y1907D01*
D02*
X2491Y1260D02*
X2490Y758D01*
D02*
X2240Y508D02*
X641Y508D01*
D02*
X2490Y758D02*
X2240Y508D01*
D02*
X641Y508D02*
X490Y660D01*
D02*
X490Y660D02*
X391Y660D01*
D02*
X391Y660D02*
X278Y797D01*
D02*
X2677Y1445D02*
X2491Y1260D01*
D02*
X1790Y1759D02*
X1739Y1745D01*
D02*
X3390Y2659D02*
X3562Y2659D01*
D02*
X3340Y2609D02*
X3390Y2659D01*
D02*
X3209Y2609D02*
X3340Y2609D01*
D02*
X1941Y1759D02*
X1790Y1759D01*
D02*
X1977Y1722D02*
X1941Y1759D01*
D02*
X2390Y778D02*
X2390Y1690D01*
D02*
X1877Y1496D02*
X1732Y1358D01*
D02*
X3721Y1059D02*
X3471Y1059D01*
D02*
X1391Y859D02*
X1379Y844D01*
D02*
X1740Y858D02*
X1391Y859D01*
D02*
X2040Y1159D02*
X1740Y858D01*
D02*
X2040Y1240D02*
X2040Y1159D01*
D02*
X2439Y2057D02*
X2439Y2259D01*
D02*
X2439Y2259D02*
X2241Y2509D01*
D02*
X2241Y2509D02*
X1638Y2508D01*
D02*
X2240Y1858D02*
X2439Y2057D01*
D02*
X2240Y1478D02*
X2240Y1858D01*
D02*
X1539Y2409D02*
X1540Y2328D01*
D02*
X1638Y2508D02*
X1539Y2409D01*
D02*
X2341Y1858D02*
X2491Y2009D01*
D02*
X2491Y2009D02*
X2491Y2310D01*
D02*
X2339Y909D02*
X2341Y1858D01*
D02*
X2304Y872D02*
X2339Y909D01*
D02*
X1492Y2460D02*
X1491Y2008D01*
D02*
X1589Y2560D02*
X1492Y2460D01*
D02*
X2290Y2560D02*
X1589Y2560D01*
D02*
X2491Y2310D02*
X2290Y2560D01*
D02*
X1491Y2008D02*
X1540Y1960D01*
D02*
X1540Y1960D02*
X1580Y1946D01*
D02*
X2022Y1509D02*
X1990Y1510D01*
D02*
X1642Y1258D02*
X1621Y1308D01*
D02*
X1740Y1259D02*
X1642Y1258D01*
D02*
X1990Y1510D02*
X1740Y1259D01*
D02*
X990Y1510D02*
X990Y1760D01*
D02*
X990Y1760D02*
X1440Y2210D01*
D02*
X1040Y1445D02*
X990Y1510D01*
D02*
X1540Y2609D02*
X2339Y2609D01*
D02*
X1440Y2509D02*
X1540Y2609D01*
D02*
X1440Y2210D02*
X1440Y2509D01*
D02*
X2540Y2359D02*
X2541Y1959D01*
D02*
X2339Y2609D02*
X2540Y2359D01*
D02*
X3139Y1258D02*
X3410Y1259D01*
D02*
X2591Y1559D02*
X2841Y1559D01*
D02*
X2491Y1659D02*
X2591Y1559D01*
D02*
X2491Y1909D02*
X2491Y1659D01*
D02*
X2541Y1959D02*
X2491Y1909D01*
D02*
X2841Y1559D02*
X3139Y1258D01*
D02*
X641Y1608D02*
X1027Y1995D01*
D02*
X639Y1509D02*
X641Y1608D01*
D02*
X652Y1451D02*
X639Y1509D01*
D02*
X891Y1760D02*
X1389Y2258D01*
D02*
X891Y1510D02*
X891Y1760D01*
D02*
X940Y1445D02*
X891Y1510D01*
D02*
X1391Y2560D02*
X1492Y2658D01*
D02*
X1389Y2258D02*
X1391Y2560D01*
D02*
X2392Y2658D02*
X2591Y2408D01*
D02*
X1492Y2658D02*
X2392Y2658D01*
D02*
X2591Y2408D02*
X2590Y1678D01*
D02*
X540Y1608D02*
X1027Y2095D01*
D02*
X540Y1509D02*
X540Y1608D01*
D02*
X552Y1451D02*
X540Y1509D01*
D02*
X1741Y2308D02*
X1709Y2309D01*
D02*
X2027Y2022D02*
X1741Y2308D01*
D02*
X1440Y1709D02*
X1391Y1658D01*
D02*
X1440Y1990D02*
X1440Y1709D01*
D02*
X1391Y1458D02*
X1379Y1444D01*
D02*
X1391Y1658D02*
X1391Y1458D01*
D02*
X3539Y2459D02*
X3354Y2272D01*
D02*
X3562Y2459D02*
X3539Y2459D01*
D02*
X989Y659D02*
X2071Y659D01*
D02*
X878Y797D02*
X989Y659D01*
D02*
X1441Y1609D02*
X1440Y978D01*
D02*
X1890Y2059D02*
X1740Y2059D01*
D02*
X1740Y2059D02*
X1734Y2055D01*
D02*
X2141Y1810D02*
X1890Y2059D01*
D02*
X2141Y608D02*
X2141Y1810D01*
D02*
X841Y608D02*
X2141Y608D01*
D02*
X679Y798D02*
X841Y608D01*
D02*
X1589Y2108D02*
X1601Y2066D01*
D02*
X1589Y2359D02*
X1589Y2108D01*
D02*
X1690Y2460D02*
X1589Y2359D01*
D02*
X2190Y2460D02*
X1690Y2460D01*
D02*
X2189Y1908D02*
X2391Y2109D01*
D02*
X2391Y2109D02*
X2391Y2210D01*
D02*
X2391Y2210D02*
X2190Y2460D01*
D02*
X2189Y558D02*
X2189Y1908D01*
D02*
X691Y559D02*
X2189Y558D01*
D02*
X442Y707D02*
X542Y707D01*
D02*
X542Y707D02*
X691Y559D01*
D02*
X377Y796D02*
X442Y707D01*
D02*
X2091Y1659D02*
X2090Y810D01*
D02*
X1989Y709D02*
X1241Y709D01*
D02*
X2090Y810D02*
X1989Y709D01*
D02*
X1241Y709D02*
X1177Y796D01*
D02*
X1592Y1659D02*
X1492Y1659D01*
D02*
X1492Y1659D02*
X1441Y1609D01*
D02*
X1590Y1661D02*
X1592Y1659D01*
D02*
X1740Y1659D02*
X2091Y1659D01*
D02*
X1734Y1655D02*
X1740Y1659D01*
G54D21*
X3200Y2037D02*
X3279Y2037D01*
X3200Y2036D02*
X3279Y2036D01*
X3200Y2035D02*
X3279Y2035D01*
X3200Y2034D02*
X3279Y2034D01*
X3200Y2033D02*
X3279Y2033D01*
X3200Y2032D02*
X3279Y2032D01*
X3200Y2031D02*
X3279Y2031D01*
X3200Y2030D02*
X3279Y2030D01*
X3200Y2029D02*
X3279Y2029D01*
X3200Y2028D02*
X3279Y2028D01*
X3200Y2027D02*
X3279Y2027D01*
X3200Y2026D02*
X3279Y2026D01*
X3200Y2025D02*
X3279Y2025D01*
X3200Y2024D02*
X3279Y2024D01*
X3200Y2023D02*
X3279Y2023D01*
X3200Y2022D02*
X3279Y2022D01*
X3200Y2021D02*
X3234Y2021D01*
X3244Y2021D02*
X3279Y2021D01*
X3200Y2020D02*
X3231Y2020D01*
X3248Y2020D02*
X3279Y2020D01*
X3200Y2019D02*
X3228Y2019D01*
X3250Y2019D02*
X3279Y2019D01*
X3200Y2018D02*
X3227Y2018D01*
X3252Y2018D02*
X3279Y2018D01*
X3200Y2017D02*
X3225Y2017D01*
X3253Y2017D02*
X3279Y2017D01*
X3200Y2016D02*
X3224Y2016D01*
X3255Y2016D02*
X3279Y2016D01*
X3200Y2015D02*
X3223Y2015D01*
X3256Y2015D02*
X3279Y2015D01*
X3200Y2014D02*
X3222Y2014D01*
X3257Y2014D02*
X3279Y2014D01*
X3200Y2013D02*
X3221Y2013D01*
X3258Y2013D02*
X3279Y2013D01*
X3200Y2012D02*
X3220Y2012D01*
X3259Y2012D02*
X3279Y2012D01*
X3200Y2011D02*
X3219Y2011D01*
X3259Y2011D02*
X3279Y2011D01*
X3200Y2010D02*
X3219Y2010D01*
X3260Y2010D02*
X3279Y2010D01*
X3200Y2009D02*
X3218Y2009D01*
X3260Y2009D02*
X3279Y2009D01*
X3200Y2008D02*
X3218Y2008D01*
X3261Y2008D02*
X3279Y2008D01*
X3200Y2007D02*
X3217Y2007D01*
X3261Y2007D02*
X3279Y2007D01*
X3200Y2006D02*
X3217Y2006D01*
X3262Y2006D02*
X3279Y2006D01*
X3200Y2005D02*
X3216Y2005D01*
X3262Y2005D02*
X3279Y2005D01*
X3200Y2004D02*
X3216Y2004D01*
X3262Y2004D02*
X3279Y2004D01*
X3200Y2003D02*
X3216Y2003D01*
X3263Y2003D02*
X3279Y2003D01*
X3200Y2002D02*
X3216Y2002D01*
X3263Y2002D02*
X3279Y2002D01*
X3200Y2001D02*
X3215Y2001D01*
X3263Y2001D02*
X3279Y2001D01*
X3200Y2000D02*
X3215Y2000D01*
X3263Y2000D02*
X3279Y2000D01*
X3200Y1999D02*
X3215Y1999D01*
X3263Y1999D02*
X3279Y1999D01*
X3200Y1998D02*
X3215Y1998D01*
X3263Y1998D02*
X3279Y1998D01*
X3200Y1997D02*
X3215Y1997D01*
X3263Y1997D02*
X3279Y1997D01*
X3200Y1996D02*
X3215Y1996D01*
X3263Y1996D02*
X3279Y1996D01*
X3200Y1995D02*
X3215Y1995D01*
X3263Y1995D02*
X3279Y1995D01*
X3200Y1994D02*
X3215Y1994D01*
X3263Y1994D02*
X3279Y1994D01*
X3200Y1993D02*
X3216Y1993D01*
X3263Y1993D02*
X3279Y1993D01*
X3200Y1992D02*
X3216Y1992D01*
X3263Y1992D02*
X3279Y1992D01*
X3200Y1991D02*
X3216Y1991D01*
X3262Y1991D02*
X3279Y1991D01*
X3200Y1990D02*
X3217Y1990D01*
X3262Y1990D02*
X3279Y1990D01*
X3200Y1989D02*
X3217Y1989D01*
X3262Y1989D02*
X3279Y1989D01*
X3200Y1988D02*
X3217Y1988D01*
X3261Y1988D02*
X3279Y1988D01*
X3200Y1987D02*
X3218Y1987D01*
X3261Y1987D02*
X3279Y1987D01*
X3200Y1986D02*
X3218Y1986D01*
X3260Y1986D02*
X3279Y1986D01*
X3200Y1985D02*
X3219Y1985D01*
X3260Y1985D02*
X3279Y1985D01*
X3200Y1984D02*
X3220Y1984D01*
X3259Y1984D02*
X3279Y1984D01*
X3200Y1983D02*
X3221Y1983D01*
X3258Y1983D02*
X3279Y1983D01*
X3200Y1982D02*
X3221Y1982D01*
X3257Y1982D02*
X3279Y1982D01*
X3200Y1981D02*
X3222Y1981D01*
X3256Y1981D02*
X3279Y1981D01*
X3200Y1980D02*
X3223Y1980D01*
X3255Y1980D02*
X3279Y1980D01*
X3200Y1979D02*
X3225Y1979D01*
X3254Y1979D02*
X3279Y1979D01*
X3200Y1978D02*
X3226Y1978D01*
X3252Y1978D02*
X3279Y1978D01*
X3200Y1977D02*
X3228Y1977D01*
X3251Y1977D02*
X3279Y1977D01*
X3200Y1976D02*
X3230Y1976D01*
X3249Y1976D02*
X3279Y1976D01*
X3200Y1975D02*
X3233Y1975D01*
X3245Y1975D02*
X3279Y1975D01*
X3200Y1974D02*
X3279Y1974D01*
X3200Y1973D02*
X3279Y1973D01*
X3200Y1972D02*
X3279Y1972D01*
X3200Y1971D02*
X3279Y1971D01*
X3200Y1970D02*
X3279Y1970D01*
X3200Y1969D02*
X3279Y1969D01*
X3200Y1968D02*
X3279Y1968D01*
X3200Y1967D02*
X3279Y1967D01*
X3200Y1966D02*
X3279Y1966D01*
X3200Y1965D02*
X3279Y1965D01*
X3200Y1964D02*
X3279Y1964D01*
X3200Y1963D02*
X3279Y1963D01*
X3200Y1962D02*
X3279Y1962D01*
X3200Y1961D02*
X3279Y1961D01*
X3200Y1960D02*
X3279Y1960D01*
X3200Y1959D02*
X3279Y1959D01*
X3200Y1958D02*
X3278Y1958D01*
X3157Y1092D02*
X3221Y1092D01*
X3157Y1091D02*
X3221Y1091D01*
X3157Y1090D02*
X3221Y1090D01*
X3157Y1089D02*
X3221Y1089D01*
X3157Y1088D02*
X3221Y1088D01*
X3157Y1087D02*
X3221Y1087D01*
X3157Y1086D02*
X3221Y1086D01*
X3157Y1085D02*
X3221Y1085D01*
X3157Y1084D02*
X3221Y1084D01*
X3157Y1083D02*
X3221Y1083D01*
X3157Y1082D02*
X3221Y1082D01*
X3157Y1081D02*
X3221Y1081D01*
X3157Y1080D02*
X3221Y1080D01*
X3157Y1079D02*
X3221Y1079D01*
X3157Y1078D02*
X3221Y1078D01*
X3157Y1077D02*
X3221Y1077D01*
X3157Y1076D02*
X3221Y1076D01*
X3157Y1075D02*
X3221Y1075D01*
X3157Y1074D02*
X3221Y1074D01*
X3157Y1073D02*
X3184Y1073D01*
X3195Y1073D02*
X3221Y1073D01*
X3157Y1072D02*
X3182Y1072D01*
X3197Y1072D02*
X3221Y1072D01*
X3157Y1071D02*
X3180Y1071D01*
X3198Y1071D02*
X3221Y1071D01*
X3157Y1070D02*
X3179Y1070D01*
X3199Y1070D02*
X3221Y1070D01*
X3157Y1069D02*
X3178Y1069D01*
X3200Y1069D02*
X3221Y1069D01*
X3157Y1068D02*
X3177Y1068D01*
X3201Y1068D02*
X3221Y1068D01*
X3157Y1067D02*
X3177Y1067D01*
X3202Y1067D02*
X3221Y1067D01*
X3157Y1066D02*
X3176Y1066D01*
X3202Y1066D02*
X3221Y1066D01*
X3157Y1065D02*
X3176Y1065D01*
X3203Y1065D02*
X3221Y1065D01*
X3157Y1064D02*
X3176Y1064D01*
X3203Y1064D02*
X3221Y1064D01*
X3157Y1063D02*
X3175Y1063D01*
X3203Y1063D02*
X3221Y1063D01*
X3157Y1062D02*
X3175Y1062D01*
X3203Y1062D02*
X3221Y1062D01*
X3157Y1061D02*
X3175Y1061D01*
X3203Y1061D02*
X3221Y1061D01*
X3157Y1060D02*
X3175Y1060D01*
X3203Y1060D02*
X3221Y1060D01*
X3157Y1059D02*
X3175Y1059D01*
X3203Y1059D02*
X3221Y1059D01*
X3157Y1058D02*
X3175Y1058D01*
X3203Y1058D02*
X3221Y1058D01*
X3157Y1057D02*
X3175Y1057D01*
X3203Y1057D02*
X3221Y1057D01*
X3157Y1056D02*
X3176Y1056D01*
X3203Y1056D02*
X3221Y1056D01*
X3157Y1055D02*
X3176Y1055D01*
X3202Y1055D02*
X3221Y1055D01*
X3157Y1054D02*
X3177Y1054D01*
X3202Y1054D02*
X3221Y1054D01*
X3157Y1053D02*
X3177Y1053D01*
X3201Y1053D02*
X3221Y1053D01*
X3157Y1052D02*
X3178Y1052D01*
X3201Y1052D02*
X3221Y1052D01*
X3157Y1051D02*
X3179Y1051D01*
X3200Y1051D02*
X3221Y1051D01*
X3157Y1050D02*
X3180Y1050D01*
X3199Y1050D02*
X3221Y1050D01*
X3157Y1049D02*
X3181Y1049D01*
X3198Y1049D02*
X3221Y1049D01*
X3157Y1048D02*
X3183Y1048D01*
X3196Y1048D02*
X3221Y1048D01*
X3157Y1047D02*
X3185Y1047D01*
X3193Y1047D02*
X3221Y1047D01*
X3157Y1046D02*
X3221Y1046D01*
X3157Y1045D02*
X3221Y1045D01*
X3157Y1044D02*
X3221Y1044D01*
X3157Y1043D02*
X3221Y1043D01*
X3157Y1042D02*
X3221Y1042D01*
X3157Y1041D02*
X3221Y1041D01*
X3157Y1040D02*
X3221Y1040D01*
X3157Y1039D02*
X3221Y1039D01*
X3157Y1038D02*
X3221Y1038D01*
X3157Y1037D02*
X3221Y1037D01*
X3157Y1036D02*
X3221Y1036D01*
X3157Y1035D02*
X3221Y1035D01*
X3157Y1034D02*
X3221Y1034D01*
X3157Y1033D02*
X3221Y1033D01*
X3157Y1032D02*
X3221Y1032D01*
X3157Y1031D02*
X3221Y1031D01*
X3157Y1030D02*
X3221Y1030D01*
X3157Y1029D02*
X3221Y1029D01*
X3157Y1028D02*
X3221Y1028D01*
D02*
G04 End of Copper1*
M02*