G04 EAGLE Gerber X2 export*
%TF.Part,Single*%
%TF.FileFunction,Soldermask,Bot,1*%
%TF.FilePolarity,Negative*%
%TF.GenerationSoftware,Autodesk,EAGLE,9.0.0*%
%TF.CreationDate,2018-08-29T12:33:52Z*%
G75*
%MOMM*%
%FSLAX34Y34*%
%LPD*%
%AMOC8*
5,1,8,0,0,1.08239X$1,22.5*%
G01*
%ADD10C,1.727200*%
%ADD11P,1.869504X8X292.500000*%
%ADD12C,1.803200*%
%ADD13R,1.099481X3.001550*%
%ADD14C,1.411200*%
%ADD15C,0.803200*%
%ADD16C,0.953200*%
%ADD17C,0.703200*%
%ADD18C,3.098800*%
%ADD19C,0.959600*%


D10*
X624840Y264922D02*
X609600Y264922D01*
X609600Y310134D02*
X624840Y310134D01*
X559816Y264922D02*
X544576Y264922D01*
X544576Y310134D02*
X559816Y310134D01*
X92710Y104140D02*
X92710Y88900D01*
X118110Y88900D02*
X118110Y104140D01*
X143510Y104140D02*
X143510Y88900D01*
X168910Y88900D02*
X168910Y104140D01*
X194310Y104140D02*
X194310Y88900D01*
X219710Y88900D02*
X219710Y104140D01*
X245110Y104140D02*
X245110Y88900D01*
X270510Y88900D02*
X270510Y104140D01*
X485140Y445770D02*
X485140Y461010D01*
X510540Y461010D02*
X510540Y445770D01*
X535940Y445770D02*
X535940Y461010D01*
X561340Y461010D02*
X561340Y445770D01*
X586740Y445770D02*
X586740Y461010D01*
D11*
X270002Y363474D03*
X295402Y363474D03*
X270002Y338074D03*
X295402Y338074D03*
X270002Y312674D03*
X295402Y312674D03*
X270002Y287274D03*
X295402Y287274D03*
X270002Y261874D03*
X295402Y261874D03*
X270002Y236474D03*
X295402Y236474D03*
X270002Y211074D03*
X295402Y211074D03*
X270002Y185674D03*
X295402Y185674D03*
D12*
X441800Y231140D03*
X421800Y231140D03*
D13*
X378549Y287536D03*
D14*
X357546Y309028D03*
X357546Y266028D03*
D15*
X368046Y316778D03*
D16*
X368046Y258278D03*
D17*
X378546Y287528D03*
D18*
X666242Y359156D02*
X695198Y359156D01*
X695198Y319532D02*
X666242Y319532D01*
X666242Y279908D02*
X695198Y279908D01*
X695198Y240284D02*
X666242Y240284D01*
D19*
X151130Y296926D03*
X183134Y247142D03*
X151130Y341376D03*
X519176Y254254D03*
X538734Y241808D03*
X165354Y296926D03*
X202692Y250698D03*
X151130Y352044D03*
X341376Y369824D03*
X327152Y369824D03*
X158242Y183134D03*
X471170Y440944D03*
X179578Y304038D03*
X186690Y346710D03*
X231140Y327152D03*
X209804Y257810D03*
X204470Y273812D03*
X190246Y273812D03*
X190246Y304038D03*
M02*
