G04 EAGLE Gerber X2 export*
%TF.Part,Single*%
%TF.FileFunction,Paste,Top*%
%TF.FilePolarity,Positive*%
%TF.GenerationSoftware,Autodesk,EAGLE,9.0.0*%
%TF.CreationDate,2018-08-29T12:33:52Z*%
G75*
%MOMM*%
%FSLAX34Y34*%
%LPD*%
%AMOC8*
5,1,8,0,0,1.08239X$1,22.5*%
G01*
%ADD10R,0.900000X0.700000*%
%ADD11R,0.700000X0.900000*%
%ADD12R,0.550000X1.200000*%
%ADD13R,0.550000X1.700000*%
%ADD14R,1.000000X0.700000*%
%ADD15R,0.950000X0.700000*%
%ADD16R,1.200000X1.200000*%
%ADD17R,1.400000X1.000000*%
%ADD18R,1.500000X0.700000*%
%ADD19C,0.600000*%
%ADD20R,1.500000X1.500000*%
%ADD21R,0.600000X0.600000*%
%ADD22R,1.100000X0.285000*%
%ADD23R,0.285000X1.100000*%
%ADD24R,0.296800X0.850000*%
%ADD25R,0.700000X0.280000*%
%ADD26R,2.399794X1.649981*%
%ADD27R,1.900000X1.100000*%
%ADD28R,1.700000X2.400000*%
%ADD29R,0.500000X0.250000*%
%ADD30R,0.250000X0.500000*%
%ADD31C,0.090000*%

G36*
X378546Y301532D02*
X378546Y301532D01*
X377544Y301419D01*
X377543Y301419D01*
X376592Y301086D01*
X376591Y301086D01*
X375738Y300550D01*
X375738Y300549D01*
X375737Y300549D01*
X375025Y299837D01*
X375025Y299836D01*
X375024Y299836D01*
X374488Y298983D01*
X374488Y298982D01*
X374155Y298031D01*
X374155Y298030D01*
X374154Y298026D01*
X374153Y298017D01*
X374153Y298013D01*
X374152Y298004D01*
X374151Y298000D01*
X374150Y297992D01*
X374150Y297987D01*
X374149Y297979D01*
X374148Y297975D01*
X374147Y297966D01*
X374147Y297962D01*
X374146Y297953D01*
X374146Y297949D01*
X374145Y297949D01*
X374146Y297949D01*
X374145Y297941D01*
X374144Y297936D01*
X374143Y297928D01*
X374143Y297924D01*
X374142Y297919D01*
X374142Y297915D01*
X374141Y297911D01*
X374141Y297907D01*
X374140Y297898D01*
X374139Y297894D01*
X374138Y297885D01*
X374138Y297881D01*
X374137Y297873D01*
X374136Y297868D01*
X374135Y297860D01*
X374135Y297856D01*
X374134Y297847D01*
X374134Y297843D01*
X374133Y297834D01*
X374132Y297830D01*
X374131Y297822D01*
X374131Y297817D01*
X374130Y297809D01*
X374129Y297805D01*
X374129Y297800D01*
X374128Y297796D01*
X374128Y297792D01*
X374127Y297788D01*
X374127Y297783D01*
X374126Y297779D01*
X374126Y297775D01*
X374125Y297766D01*
X374124Y297762D01*
X374123Y297754D01*
X374123Y297749D01*
X374122Y297741D01*
X374122Y297737D01*
X374121Y297728D01*
X374120Y297724D01*
X374119Y297715D01*
X374119Y297711D01*
X374118Y297703D01*
X374117Y297698D01*
X374116Y297690D01*
X374116Y297686D01*
X374115Y297677D01*
X374114Y297673D01*
X374114Y297669D01*
X374113Y297664D01*
X374113Y297660D01*
X374112Y297656D01*
X374112Y297647D01*
X374111Y297647D01*
X374112Y297647D01*
X374111Y297643D01*
X374110Y297635D01*
X374110Y297630D01*
X374109Y297622D01*
X374108Y297618D01*
X374107Y297609D01*
X374107Y297605D01*
X374106Y297596D01*
X374105Y297592D01*
X374104Y297584D01*
X374104Y297579D01*
X374103Y297571D01*
X374102Y297567D01*
X374101Y297558D01*
X374101Y297554D01*
X374101Y297550D01*
X374100Y297550D01*
X374100Y297545D01*
X374100Y297541D01*
X374099Y297537D01*
X374099Y297533D01*
X374098Y297528D01*
X374098Y297524D01*
X374097Y297516D01*
X374096Y297511D01*
X374095Y297503D01*
X374095Y297499D01*
X374094Y297490D01*
X374093Y297486D01*
X374092Y297477D01*
X374092Y297473D01*
X374091Y297465D01*
X374090Y297460D01*
X374089Y297452D01*
X374089Y297448D01*
X374088Y297439D01*
X374088Y297435D01*
X374087Y297426D01*
X374086Y297422D01*
X374086Y297418D01*
X374085Y297414D01*
X374085Y297409D01*
X374084Y297405D01*
X374083Y297397D01*
X374083Y297392D01*
X374082Y297384D01*
X374081Y297380D01*
X374080Y297371D01*
X374080Y297367D01*
X374079Y297358D01*
X374078Y297354D01*
X374078Y297346D01*
X374077Y297346D01*
X374078Y297346D01*
X374077Y297341D01*
X374076Y297333D01*
X374076Y297329D01*
X374075Y297320D01*
X374074Y297316D01*
X374073Y297307D01*
X374073Y297303D01*
X374072Y297299D01*
X374072Y297295D01*
X374071Y297290D01*
X374071Y297286D01*
X374070Y297278D01*
X374069Y297273D01*
X374068Y297265D01*
X374068Y297261D01*
X374067Y297252D01*
X374067Y297248D01*
X374066Y297248D01*
X374067Y297248D01*
X374066Y297239D01*
X374065Y297235D01*
X374064Y297227D01*
X374064Y297222D01*
X374063Y297214D01*
X374062Y297210D01*
X374061Y297201D01*
X374061Y297197D01*
X374060Y297188D01*
X374059Y297184D01*
X374059Y297180D01*
X374058Y297176D01*
X374058Y297171D01*
X374057Y297167D01*
X374057Y297163D01*
X374056Y297159D01*
X374056Y297154D01*
X374055Y297146D01*
X374055Y297142D01*
X374054Y297133D01*
X374053Y297129D01*
X374052Y297120D01*
X374052Y297116D01*
X374051Y297108D01*
X374050Y297103D01*
X374049Y297095D01*
X374049Y297091D01*
X374048Y297082D01*
X374047Y297078D01*
X374046Y297069D01*
X374046Y297065D01*
X374045Y297057D01*
X374044Y297052D01*
X374044Y297048D01*
X374044Y297044D01*
X374043Y297044D01*
X374044Y297044D01*
X374043Y297040D01*
X374043Y297035D01*
X374042Y297028D01*
X374042Y278028D01*
X374155Y277026D01*
X374155Y277025D01*
X374488Y276074D01*
X374488Y276073D01*
X375024Y275220D01*
X375025Y275220D01*
X375025Y275219D01*
X375737Y274507D01*
X375738Y274507D01*
X375738Y274506D01*
X376591Y273970D01*
X376592Y273970D01*
X377543Y273637D01*
X377544Y273637D01*
X378545Y273524D01*
X378546Y273524D01*
X379548Y273637D01*
X379549Y273637D01*
X380500Y273970D01*
X380501Y273970D01*
X381354Y274506D01*
X381354Y274507D01*
X381355Y274507D01*
X382067Y275219D01*
X382067Y275220D01*
X382068Y275220D01*
X382604Y276073D01*
X382604Y276074D01*
X382937Y277025D01*
X382937Y277026D01*
X382938Y277029D01*
X382938Y277030D01*
X382938Y277034D01*
X382939Y277038D01*
X382939Y277042D01*
X382940Y277046D01*
X382940Y277047D01*
X382940Y277051D01*
X382941Y277059D01*
X382942Y277063D01*
X382942Y277064D01*
X382943Y277072D01*
X382943Y277076D01*
X382944Y277085D01*
X382944Y277089D01*
X382945Y277089D01*
X382944Y277089D01*
X382945Y277097D01*
X382945Y277098D01*
X382946Y277102D01*
X382947Y277110D01*
X382947Y277114D01*
X382947Y277115D01*
X382948Y277123D01*
X382949Y277127D01*
X382950Y277136D01*
X382950Y277140D01*
X382951Y277148D01*
X382951Y277149D01*
X382952Y277153D01*
X382952Y277157D01*
X382953Y277161D01*
X382953Y277165D01*
X382953Y277166D01*
X382954Y277170D01*
X382955Y277178D01*
X382955Y277182D01*
X382955Y277183D01*
X382956Y277191D01*
X382956Y277195D01*
X382957Y277204D01*
X382958Y277208D01*
X382959Y277216D01*
X382959Y277217D01*
X382959Y277221D01*
X382960Y277229D01*
X382961Y277233D01*
X382961Y277234D01*
X382962Y277242D01*
X382962Y277246D01*
X382963Y277255D01*
X382964Y277259D01*
X382965Y277267D01*
X382965Y277268D01*
X382965Y277272D01*
X382966Y277280D01*
X382967Y277284D01*
X382967Y277285D01*
X382967Y277289D01*
X382967Y277293D01*
X382968Y277293D01*
X382967Y277293D01*
X382968Y277297D01*
X382968Y277301D01*
X382968Y277302D01*
X382969Y277310D01*
X382970Y277314D01*
X382971Y277323D01*
X382971Y277327D01*
X382972Y277335D01*
X382972Y277336D01*
X382973Y277340D01*
X382974Y277348D01*
X382974Y277352D01*
X382974Y277353D01*
X382975Y277361D01*
X382976Y277365D01*
X382977Y277374D01*
X382977Y277378D01*
X382978Y277386D01*
X382978Y277387D01*
X382978Y277391D01*
X382979Y277391D01*
X382978Y277391D01*
X382979Y277399D01*
X382980Y277403D01*
X382980Y277404D01*
X382980Y277408D01*
X382981Y277412D01*
X382981Y277416D01*
X382982Y277420D01*
X382982Y277421D01*
X382983Y277429D01*
X382983Y277433D01*
X382984Y277442D01*
X382985Y277446D01*
X382986Y277454D01*
X382986Y277455D01*
X382986Y277459D01*
X382987Y277467D01*
X382988Y277471D01*
X382988Y277472D01*
X382989Y277480D01*
X382989Y277484D01*
X382990Y277493D01*
X382990Y277497D01*
X382991Y277505D01*
X382991Y277506D01*
X382992Y277510D01*
X382993Y277518D01*
X382993Y277522D01*
X382993Y277523D01*
X382994Y277527D01*
X382994Y277531D01*
X382995Y277535D01*
X382995Y277539D01*
X382995Y277540D01*
X382996Y277544D01*
X382996Y277548D01*
X382997Y277552D01*
X382998Y277561D01*
X382998Y277565D01*
X382999Y277573D01*
X382999Y277574D01*
X383000Y277578D01*
X383001Y277586D01*
X383001Y277590D01*
X383001Y277591D01*
X383002Y277599D01*
X383002Y277603D01*
X383003Y277612D01*
X383004Y277616D01*
X383005Y277624D01*
X383005Y277625D01*
X383005Y277629D01*
X383006Y277637D01*
X383007Y277641D01*
X383007Y277642D01*
X383008Y277650D01*
X383008Y277654D01*
X383009Y277658D01*
X383009Y277659D01*
X383009Y277663D01*
X383010Y277667D01*
X383010Y277671D01*
X383011Y277680D01*
X383012Y277684D01*
X383012Y277692D01*
X383013Y277692D01*
X383012Y277693D01*
X383013Y277697D01*
X383014Y277705D01*
X383014Y277709D01*
X383014Y277710D01*
X383015Y277718D01*
X383016Y277722D01*
X383017Y277731D01*
X383017Y277735D01*
X383018Y277743D01*
X383018Y277744D01*
X383019Y277748D01*
X383020Y277756D01*
X383020Y277760D01*
X383020Y277761D01*
X383021Y277769D01*
X383022Y277773D01*
X383022Y277777D01*
X383022Y277778D01*
X383023Y277782D01*
X383023Y277786D01*
X383023Y277790D01*
X383024Y277790D01*
X383024Y277799D01*
X383025Y277803D01*
X383026Y277811D01*
X383026Y277812D01*
X383026Y277816D01*
X383027Y277824D01*
X383028Y277828D01*
X383028Y277829D01*
X383029Y277837D01*
X383029Y277841D01*
X383030Y277850D01*
X383031Y277854D01*
X383032Y277862D01*
X383032Y277863D01*
X383032Y277867D01*
X383033Y277875D01*
X383034Y277879D01*
X383034Y277880D01*
X383035Y277888D01*
X383035Y277892D01*
X383035Y277896D01*
X383035Y277897D01*
X383036Y277901D01*
X383036Y277905D01*
X383037Y277909D01*
X383037Y277913D01*
X383037Y277914D01*
X383038Y277918D01*
X383038Y277922D01*
X383039Y277930D01*
X383039Y277931D01*
X383040Y277935D01*
X383041Y277943D01*
X383041Y277947D01*
X383041Y277948D01*
X383042Y277956D01*
X383043Y277960D01*
X383044Y277969D01*
X383044Y277973D01*
X383045Y277981D01*
X383045Y277982D01*
X383046Y277986D01*
X383046Y277994D01*
X383047Y277994D01*
X383046Y277994D01*
X383047Y277998D01*
X383047Y277999D01*
X383048Y278007D01*
X383048Y278011D01*
X383049Y278020D01*
X383050Y278024D01*
X383050Y278028D01*
X383050Y297028D01*
X382937Y298030D01*
X382937Y298031D01*
X382604Y298982D01*
X382604Y298983D01*
X382068Y299836D01*
X382067Y299836D01*
X382067Y299837D01*
X381355Y300549D01*
X381354Y300549D01*
X381354Y300550D01*
X380501Y301086D01*
X380500Y301086D01*
X379549Y301419D01*
X379548Y301419D01*
X378547Y301532D01*
X378546Y301532D01*
X378546Y301532D01*
G37*
%LPC*%
G36*
X377900Y275617D02*
X377900Y275617D01*
X377298Y275867D01*
X376781Y276263D01*
X376385Y276780D01*
X376135Y277382D01*
X376050Y278028D01*
X376050Y297028D01*
X376052Y297038D01*
X376052Y297039D01*
X376052Y297043D01*
X376053Y297047D01*
X376053Y297051D01*
X376058Y297085D01*
X376058Y297089D01*
X376058Y297090D01*
X376059Y297094D01*
X376060Y297098D01*
X376063Y297128D01*
X376064Y297132D01*
X376065Y297136D01*
X376065Y297140D01*
X376065Y297141D01*
X376070Y297174D01*
X376070Y297175D01*
X376070Y297179D01*
X376071Y297183D01*
X376071Y297187D01*
X376075Y297217D01*
X376076Y297221D01*
X376076Y297225D01*
X376076Y297226D01*
X376077Y297230D01*
X376081Y297264D01*
X376082Y297268D01*
X376082Y297272D01*
X376083Y297276D01*
X376083Y297277D01*
X376087Y297306D01*
X376087Y297310D01*
X376088Y297310D01*
X376087Y297311D01*
X376088Y297315D01*
X376089Y297319D01*
X376093Y297353D01*
X376094Y297357D01*
X376094Y297361D01*
X376094Y297362D01*
X376095Y297366D01*
X376099Y297395D01*
X376099Y297396D01*
X376099Y297400D01*
X376100Y297404D01*
X376100Y297408D01*
X376105Y297442D01*
X376105Y297446D01*
X376105Y297447D01*
X376106Y297451D01*
X376107Y297455D01*
X376110Y297485D01*
X376111Y297489D01*
X376112Y297493D01*
X376112Y297497D01*
X376112Y297498D01*
X376117Y297531D01*
X376117Y297532D01*
X376117Y297536D01*
X376118Y297540D01*
X376118Y297544D01*
X376122Y297574D01*
X376123Y297578D01*
X376123Y297582D01*
X376123Y297583D01*
X376124Y297587D01*
X376128Y297621D01*
X376129Y297625D01*
X376129Y297629D01*
X376130Y297633D01*
X376130Y297634D01*
X376134Y297663D01*
X376134Y297667D01*
X376135Y297667D01*
X376134Y297668D01*
X376135Y297672D01*
X376135Y297674D01*
X376385Y298276D01*
X376781Y298793D01*
X377298Y299189D01*
X377900Y299439D01*
X378546Y299524D01*
X379192Y299439D01*
X379794Y299189D01*
X380311Y298793D01*
X380707Y298276D01*
X380957Y297674D01*
X381042Y297028D01*
X381042Y278028D01*
X381039Y278008D01*
X381039Y278004D01*
X381038Y278000D01*
X381037Y277995D01*
X381033Y277961D01*
X381032Y277957D01*
X381032Y277953D01*
X381031Y277949D01*
X381027Y277919D01*
X381027Y277915D01*
X381026Y277910D01*
X381026Y277906D01*
X381021Y277872D01*
X381021Y277868D01*
X381020Y277864D01*
X381020Y277859D01*
X381019Y277859D01*
X381020Y277859D01*
X381016Y277830D01*
X381015Y277825D01*
X381014Y277821D01*
X381014Y277817D01*
X381009Y277783D01*
X381009Y277779D01*
X381008Y277774D01*
X381008Y277770D01*
X381004Y277740D01*
X381003Y277736D01*
X381003Y277732D01*
X381002Y277728D01*
X380998Y277694D01*
X380997Y277689D01*
X380997Y277685D01*
X380996Y277681D01*
X380992Y277651D01*
X380992Y277647D01*
X380991Y277643D01*
X380990Y277638D01*
X380986Y277604D01*
X380985Y277600D01*
X380985Y277596D01*
X380984Y277592D01*
X380980Y277562D01*
X380980Y277558D01*
X380979Y277553D01*
X380979Y277549D01*
X380974Y277515D01*
X380974Y277511D01*
X380973Y277507D01*
X380973Y277502D01*
X380972Y277502D01*
X380973Y277502D01*
X380969Y277473D01*
X380968Y277468D01*
X380967Y277464D01*
X380967Y277460D01*
X380962Y277426D01*
X380962Y277422D01*
X380961Y277417D01*
X380961Y277413D01*
X380957Y277383D01*
X380957Y277382D01*
X380707Y276780D01*
X380311Y276263D01*
X379794Y275867D01*
X379192Y275617D01*
X378546Y275532D01*
X377900Y275617D01*
G37*
%LPD*%
D10*
X501650Y402740D03*
X501650Y389740D03*
X600710Y225910D03*
X600710Y238910D03*
X491490Y229720D03*
X491490Y242720D03*
X524510Y198270D03*
X524510Y185270D03*
D11*
X198270Y138430D03*
X185270Y138430D03*
X198270Y153670D03*
X185270Y153670D03*
D10*
X472440Y327510D03*
X472440Y340510D03*
D11*
X228750Y124460D03*
X215750Y124460D03*
X253850Y124460D03*
X266850Y124460D03*
D10*
X444500Y285600D03*
X444500Y298600D03*
X95250Y205890D03*
X95250Y192890D03*
X585470Y405280D03*
X585470Y392280D03*
D12*
X428600Y317800D03*
X419100Y317800D03*
X409600Y317800D03*
X409600Y291800D03*
X428600Y291800D03*
D13*
X547860Y190500D03*
D14*
X550110Y202500D03*
D15*
X549860Y178500D03*
D13*
X577360Y190500D03*
D15*
X575360Y178500D03*
X575360Y202500D03*
D16*
X476250Y277028D03*
X476250Y298028D03*
D17*
X542720Y397510D03*
X564720Y407010D03*
X564720Y388010D03*
X557100Y342900D03*
X535100Y333400D03*
X535100Y352400D03*
X497000Y279400D03*
X519000Y288900D03*
X519000Y269900D03*
D10*
X521970Y389740D03*
X521970Y402740D03*
X584200Y225910D03*
X584200Y238910D03*
X552450Y238910D03*
X552450Y225910D03*
X568960Y238910D03*
X568960Y225910D03*
X474980Y229720D03*
X474980Y242720D03*
X584200Y349400D03*
X584200Y336400D03*
D11*
X489100Y191770D03*
X476100Y191770D03*
D10*
X515620Y348130D03*
X515620Y335130D03*
X609600Y349400D03*
X609600Y336400D03*
X481330Y389740D03*
X481330Y402740D03*
D11*
X507850Y312420D03*
X520850Y312420D03*
X425300Y342900D03*
X438300Y342900D03*
D10*
X614680Y233830D03*
X614680Y220830D03*
D18*
X317500Y456300D03*
X317500Y445300D03*
X317500Y434300D03*
X317500Y423300D03*
X317500Y412300D03*
X317500Y401300D03*
X317500Y390300D03*
X317500Y379300D03*
X457500Y379300D03*
X457500Y390300D03*
X457500Y401300D03*
X457500Y412300D03*
X457500Y423300D03*
X457500Y434300D03*
X457500Y445300D03*
X457500Y456300D03*
D19*
X365000Y388300D03*
X380000Y388300D03*
X395000Y388300D03*
X410000Y388300D03*
X365000Y400300D03*
X380000Y400300D03*
X395000Y400300D03*
X410000Y400300D03*
X365000Y412300D03*
X380000Y412300D03*
X395000Y412300D03*
X410000Y412300D03*
X365000Y424300D03*
X380000Y424300D03*
X395000Y424300D03*
X410000Y424300D03*
X365000Y436300D03*
X365000Y448300D03*
X380000Y448300D03*
X380000Y436300D03*
X395000Y436300D03*
X395000Y448300D03*
X410000Y448300D03*
X410000Y436300D03*
D20*
X353800Y468300D03*
X376300Y468300D03*
X398800Y468300D03*
X421300Y468300D03*
D19*
X350000Y388300D03*
X350000Y400300D03*
X350000Y412300D03*
X350000Y424300D03*
X350000Y436300D03*
X350000Y448300D03*
X425000Y388300D03*
X425000Y400300D03*
X425000Y412300D03*
X425000Y424300D03*
X425000Y436300D03*
X425000Y448300D03*
X365000Y376300D03*
X380000Y376300D03*
X395000Y376300D03*
X410000Y376300D03*
X350000Y376300D03*
X425000Y376300D03*
X440000Y388300D03*
X440000Y400300D03*
D21*
X440000Y376300D03*
D22*
X108100Y266100D03*
X108100Y261100D03*
X108100Y256100D03*
X108100Y251100D03*
X108100Y246100D03*
X108100Y241100D03*
X108100Y236100D03*
X108100Y231100D03*
X108100Y226100D03*
X108100Y221100D03*
X108100Y216100D03*
X108100Y211100D03*
X108100Y206100D03*
X108100Y201100D03*
X108100Y196100D03*
X108100Y191100D03*
D23*
X127600Y171600D03*
X132600Y171600D03*
X137600Y171600D03*
X142600Y171600D03*
X147600Y171600D03*
X152600Y171600D03*
X157600Y171600D03*
X162600Y171600D03*
X167600Y171600D03*
X172600Y171600D03*
X177600Y171600D03*
X182600Y171600D03*
X187600Y171600D03*
X192600Y171600D03*
X197600Y171600D03*
X202600Y171600D03*
X127600Y285600D03*
X132600Y285600D03*
X137600Y285600D03*
X142600Y285600D03*
X147600Y285600D03*
X152600Y285600D03*
X157600Y285600D03*
X162600Y285600D03*
X167600Y285600D03*
X172600Y285600D03*
X177600Y285600D03*
X182600Y285600D03*
X187600Y285600D03*
X192600Y285600D03*
X197600Y285600D03*
X202600Y285600D03*
D22*
X222100Y266100D03*
X222100Y261100D03*
X222100Y256100D03*
X222100Y251100D03*
X222100Y246100D03*
X222100Y241100D03*
X222100Y236100D03*
X222100Y231100D03*
X222100Y226100D03*
X222100Y221100D03*
X222100Y216100D03*
X222100Y211100D03*
X222100Y206100D03*
X222100Y201100D03*
X222100Y196100D03*
X222100Y191100D03*
D24*
X510700Y215120D03*
X515700Y215120D03*
X520700Y215120D03*
X525700Y215120D03*
X530700Y215120D03*
X530700Y244620D03*
X525700Y244620D03*
X520700Y244620D03*
X515700Y244620D03*
X510700Y244620D03*
D25*
X505700Y232370D03*
X505700Y227370D03*
X535700Y232370D03*
X535700Y227370D03*
D26*
X520700Y229870D03*
D27*
X263610Y162630D03*
X226610Y139630D03*
X263610Y139630D03*
X226610Y162630D03*
D28*
X291550Y402590D03*
X254550Y402590D03*
D29*
X156680Y335120D03*
X156680Y330120D03*
X156680Y325120D03*
X156680Y320120D03*
X156680Y315120D03*
D30*
X165180Y311620D03*
X170180Y311620D03*
X175180Y311620D03*
D29*
X183680Y315120D03*
X183680Y320120D03*
X183680Y325120D03*
X183680Y330120D03*
X183680Y335120D03*
D30*
X175180Y338620D03*
X170180Y338620D03*
X165180Y338620D03*
D10*
X228600Y387200D03*
X228600Y400200D03*
D11*
X222400Y368300D03*
X209400Y368300D03*
X222400Y342900D03*
X209400Y342900D03*
X209400Y317500D03*
X222400Y317500D03*
D10*
X330200Y247800D03*
X330200Y234800D03*
X330200Y209700D03*
X330200Y196700D03*
D31*
X347496Y298728D02*
X347496Y302328D01*
X361596Y302328D01*
X361596Y298728D01*
X347496Y298728D01*
X347496Y299627D02*
X361596Y299627D01*
X361596Y300526D02*
X347496Y300526D01*
X347496Y301425D02*
X361596Y301425D01*
X361596Y302324D02*
X347496Y302324D01*
X347496Y295828D02*
X347496Y292228D01*
X347496Y295828D02*
X361596Y295828D01*
X361596Y292228D01*
X347496Y292228D01*
X347496Y293127D02*
X361596Y293127D01*
X361596Y294026D02*
X347496Y294026D01*
X347496Y294925D02*
X361596Y294925D01*
X361596Y295824D02*
X347496Y295824D01*
X347496Y289328D02*
X347496Y285728D01*
X347496Y289328D02*
X361596Y289328D01*
X361596Y285728D01*
X347496Y285728D01*
X347496Y286627D02*
X361596Y286627D01*
X361596Y287526D02*
X347496Y287526D01*
X347496Y288425D02*
X361596Y288425D01*
X361596Y289324D02*
X347496Y289324D01*
X347496Y282828D02*
X347496Y279228D01*
X347496Y282828D02*
X361596Y282828D01*
X361596Y279228D01*
X347496Y279228D01*
X347496Y280127D02*
X361596Y280127D01*
X361596Y281026D02*
X347496Y281026D01*
X347496Y281925D02*
X361596Y281925D01*
X361596Y282824D02*
X347496Y282824D01*
X347496Y276328D02*
X347496Y272728D01*
X347496Y276328D02*
X361596Y276328D01*
X361596Y272728D01*
X347496Y272728D01*
X347496Y273627D02*
X361596Y273627D01*
X361596Y274526D02*
X347496Y274526D01*
X347496Y275425D02*
X361596Y275425D01*
X361596Y276324D02*
X347496Y276324D01*
M02*
